<svg xmlns="http://www.w3.org/2000/svg" version="1.1" xmlns:xlink="http://www.w3.org/1999/xlink" xmlns:svgjs="http://svgjs.com/svgjs" viewBox="0 0 28 35"><defs id="SvgjsDefs1001"></defs><path d="M745.43 12580.5C742.56 12585.49 744.39 12593.06 747.5699999999999 12597.65C749.16 12599.94 750.76 12602 752.9599999999999 12602C753.0099999999999 12602 753.05 12602 753.0899999999999 12602C754.1299999999999 12601.96 754.8699999999999 12601.64 755.5999999999999 12601.33C756.4099999999999 12600.98 757.2499999999999 12600.63 758.56 12600.63C759.81 12600.63 760.6099999999999 12600.97 761.39 12601.31C762.15 12601.64 762.93 12601.98 764.09 12601.96C766.57 12601.91 768.09 12599.689999999999 769.44 12597.73C770.84 12595.68 771.5400000000001 12593.689999999999 771.7800000000001 12592.93L771.7900000000001 12592.9C771.84 12592.77 771.7700000000001 12592.619999999999 771.6400000000001 12592.56C771.6400000000001 12592.56 771.6300000000001 12592.55 771.6200000000001 12592.55C771.1900000000002 12592.369999999999 767.3500000000001 12590.67 767.3100000000002 12586.05C767.2800000000002 12582.279999999999 770.1900000000002 12580.289999999999 770.7700000000002 12579.929999999998L770.8000000000002 12579.919999999998C770.8600000000001 12579.869999999999 770.9100000000002 12579.809999999998 770.9200000000002 12579.739999999998C770.9400000000002 12579.659999999998 770.9200000000002 12579.589999999998 770.8800000000002 12579.519999999999C768.8700000000002 12576.589999999998 765.7900000000002 12576.14 764.5500000000002 12576.089999999998C764.3700000000002 12576.069999999998 764.1800000000002 12576.059999999998 764.0000000000002 12576.059999999998C762.5400000000002 12576.059999999998 761.1400000000002 12576.609999999997 760.0200000000002 12577.049999999997C759.2500000000002 12577.359999999997 758.5800000000002 12577.619999999997 758.1200000000002 12577.619999999997C757.6000000000003 12577.619999999997 756.9300000000002 12577.349999999997 756.1500000000002 12577.049999999997C755.1100000000002 12576.629999999997 753.9300000000002 12576.169999999998 752.6800000000002 12576.169999999998C752.6500000000002 12576.169999999998 752.6200000000002 12576.169999999998 752.6000000000001 12576.169999999998C749.6900000000002 12576.21 746.9500000000002 12577.869999999999 745.4300000000002 12580.499999999998ZM764.55 12568C762.79 12568.07 760.68 12569.15 759.42 12570.63C758.3499999999999 12571.869999999999 757.3 12573.939999999999 757.5799999999999 12576.019999999999C757.5999999999999 12576.149999999998 757.6999999999999 12576.249999999998 757.8299999999999 12576.259999999998C757.9499999999999 12576.269999999999 758.0699999999999 12576.279999999999 758.1999999999999 12576.279999999999C759.91 12576.279999999999 761.77 12575.329999999998 763.04 12573.8C764.37 12572.179999999998 765.04 12570.109999999999 764.8399999999999 12568.25C764.8199999999999 12568.1 764.6999999999999 12567.99 764.55 12568Z " fill="#fff" fill-opacity="1" transform="matrix(1,0,0,1,-744,-12567)"></path></svg>