<svg id="SvgjsSvg1011" xmlns="http://www.w3.org/2000/svg" version="1.1" xmlns:xlink="http://www.w3.org/1999/xlink" xmlns:svgjs="http://svgjs.com/svgjs" width="36" height="36" viewBox="0 0 36 36"><title>icon/instagram</title><desc>Created with Avocode.</desc><defs id="SvgjsDefs1012"></defs><path id="SvgjsPath1013" d="M1730.92 4631H1714.88C1709.43 4631 1705 4635.43 1705 4640.88V4656.92C1705 4662.37 1709.43 4666.8 1714.88 4666.8H1730.92C1736.3700000000001 4666.8 1740.8000000000002 4662.37 1740.8000000000002 4656.92V4640.88C1740.8000000000002 4635.43 1736.3700000000001 4631 1730.92 4631ZM1737.63 4656.92C1737.63 4660.62 1734.6200000000001 4663.62 1730.92 4663.62H1714.88C1711.18 4663.63 1708.18 4660.62 1708.18 4656.92V4640.88C1708.18 4637.18 1711.18 4634.18 1714.88 4634.18H1730.92C1734.6200000000001 4634.18 1737.6200000000001 4637.18 1737.6200000000001 4640.88V4656.92ZM1722.9 4639.68C1717.8100000000002 4639.68 1713.68 4643.81 1713.68 4648.900000000001C1713.68 4653.990000000001 1717.8100000000002 4658.13 1722.9 4658.13C1727.99 4658.13 1732.13 4653.99 1732.13 4648.900000000001C1732.13 4643.81 1727.99 4639.68 1722.9 4639.68ZM1722.9 4654.95C1719.5700000000002 4654.95 1716.8500000000001 4652.24 1716.8500000000001 4648.9C1716.8500000000001 4645.57 1719.5700000000002 4642.849999999999 1722.9 4642.849999999999C1726.24 4642.849999999999 1728.95 4645.57 1728.95 4648.9C1728.95 4652.24 1726.24 4654.95 1722.9 4654.95ZM1732.51 4636.98C1731.9 4636.98 1731.3 4637.23 1730.87 4637.66C1730.4299999999998 4638.099999999999 1730.1799999999998 4638.7 1730.1799999999998 4639.3099999999995C1730.1799999999998 4639.919999999999 1730.4299999999998 4640.53 1730.87 4640.959999999999C1731.3 4641.389999999999 1731.8999999999999 4641.639999999999 1732.51 4641.639999999999C1733.1299999999999 4641.639999999999 1733.73 4641.389999999999 1734.16 4640.959999999999C1734.5900000000001 4640.529999999999 1734.8400000000001 4639.919999999999 1734.8400000000001 4639.3099999999995C1734.8400000000001 4638.7 1734.5900000000001 4638.099999999999 1734.16 4637.66C1733.73 4637.23 1733.13 4636.98 1732.51 4636.98Z " fill="#000000" fill-opacity="1" transform="matrix(1,0,0,1,-1705,-4631)"></path></svg>