<svg xmlns="http://www.w3.org/2000/svg" version="1.1" xmlns:xlink="http://www.w3.org/1999/xlink" xmlns:svgjs="http://svgjs.com/svgjs" viewBox="0 0 18 18"><path id="SvgjsPath1025" d="M1761 6222.66V6229.389999999999H1757.14V6223.11C1757.14 6221.54 1756.5800000000002 6220.46 1755.19 6220.46C1754.1200000000001 6220.46 1753.49 6221.19 1753.21 6221.89C1753.1100000000001 6222.14 1753.08 6222.490000000001 1753.08 6222.84V6229.39H1749.22C1749.22 6229.39 1749.27 6218.76 1749.22 6217.660000000001H1753.08V6219.320000000001C1753.07 6219.330000000001 1753.06 6219.35 1753.05 6219.360000000001H1753.08V6219.320000000001C1753.59 6218.52 1754.51 6217.380000000001 1756.56 6217.380000000001C1759.1 6217.380000000001 1761 6219.060000000001 1761 6222.660000000001ZM1747.34 6214.03C1747.34 6215.15 1746.5 6216.0599999999995 1745.1599999999999 6216.0599999999995H1745.1299999999999C1743.84 6216.0599999999995 1742.9999999999998 6215.15 1742.9999999999998 6214.03C1742.9999999999998 6212.88 1743.8599999999997 6212 1745.1799999999998 6212C1746.4999999999998 6212 1747.32 6212.88 1747.34 6214.03ZM1743.23 6229.39H1747.09V6217.660000000001H1743.23Z " fill-opacity="1" transform="matrix(1,0,0,1,-1743,-6212)"></path></svg>