<svg xmlns="http://www.w3.org/2000/svg" version="1.1" xmlns:xlink="http://www.w3.org/1999/xlink" xmlns:svgjs="http://svgjs.com/svgjs" width="11" height="20" viewBox="0 0 11 20"><path id="SvgjsPath1022" d="M1709.59 6211H1706.9499999999998C1703.9799999999998 6211 1702.0699999999997 6212.93 1702.0699999999997 6215.92V6218.1900000000005H1699.4099999999996C1699.1899999999996 6218.1900000000005 1698.9999999999995 6218.370000000001 1698.9999999999995 6218.6V6221.89C1698.9999999999995 6222.110000000001 1699.1899999999996 6222.3 1699.4099999999996 6222.3H1702.0699999999997V6230.59C1702.0699999999997 6230.82 1702.2499999999998 6231 1702.4799999999998 6231H1705.9399999999998C1706.1699999999998 6231 1706.36 6230.82 1706.36 6230.59V6222.3H1709.4599999999998C1709.6899999999998 6222.3 1709.8799999999999 6222.110000000001 1709.8799999999999 6221.89V6218.6C1709.8799999999999 6218.490000000001 1709.83 6218.39 1709.7499999999998 6218.31C1709.6799999999998 6218.2300000000005 1709.5699999999997 6218.1900000000005 1709.4599999999998 6218.1900000000005H1706.36V6216.27C1706.36 6215.34 1706.58 6214.870000000001 1707.81 6214.870000000001H1709.59C1709.81 6214.870000000001 1710 6214.6900000000005 1710 6214.470000000001V6211.410000000001C1710 6211.1900000000005 1709.81 6211.000000000001 1709.59 6211.000000000001Z " fill-opacity="1" transform="matrix(1,0,0,1,-1699,-6211)"></path></svg>