<svg id="SvgjsSvg1017" xmlns="http://www.w3.org/2000/svg" version="1.1" xmlns:xlink="http://www.w3.org/1999/xlink" xmlns:svgjs="http://svgjs.com/svgjs" width="45" height="28" viewBox="0 0 45 28"><title>icon/behance</title><desc>Created with Avocode.</desc><defs id="SvgjsDefs1018"></defs><path id="SvgjsPath1019" d="M1951.74 4636.14H1940.71V4638.88H1951.74ZM1930.22 4647.7C1931.13 4647.24 1931.83 4646.71 1932.3 4646.139999999999C1933.1399999999999 4645.119999999999 1933.57 4643.78 1933.57 4642.099999999999C1933.57 4640.48 1933.1499999999999 4639.079999999999 1932.31 4637.919999999999C1930.9099999999999 4636.0199999999995 1928.56 4635.049999999999 1925.22 4634.999999999999H1912V4662.399999999999H1924.33C1925.72 4662.399999999999 1927 4662.279999999999 1928.1899999999998 4662.019999999999C1929.3799999999999 4661.769999999999 1930.4099999999999 4661.329999999999 1931.2899999999997 4660.649999999999C1932.0599999999997 4660.059999999999 1932.7099999999998 4659.359999999999 1933.2199999999998 4658.499999999999C1934.0399999999997 4657.209999999999 1934.4299999999998 4655.749999999999 1934.4299999999998 4654.119999999999C1934.4299999999998 4652.559999999999 1934.09 4651.219999999999 1933.37 4650.119999999999C1932.6599999999999 4648.999999999999 1931.61 4648.199999999999 1930.2199999999998 4647.699999999999ZM1918.32 4639.75H1923.4099999999999C1924.7199999999998 4639.75 1925.79 4639.9 1926.6399999999999 4640.18C1927.62 4640.59 1928.11 4641.43 1928.11 4642.71C1928.11 4643.86 1927.74 4644.67 1927 4645.12C1926.26 4645.57 1925.3 4645.8 1924.1 4645.8H1918.32ZM1926.87 4657.16C1926.2099999999998 4657.47 1925.28 4657.639999999999 1924.1 4657.639999999999H1918.32V4650.339999999999H1924.1899999999998C1925.36 4650.339999999999 1926.2799999999997 4650.499999999999 1926.9299999999998 4650.799999999999C1928.09 4651.32 1928.6699999999998 4652.3099999999995 1928.6699999999998 4653.73C1928.6699999999998 4655.41 1928.07 4656.5599999999995 1926.87 4657.16ZM1954.25 4645.22C1953.37 4643.900000000001 1952.25 4642.93 1950.88 4642.320000000001C1949.5100000000002 4641.710000000001 1947.97 4641.400000000001 1946.2600000000002 4641.400000000001C1943.38 4641.400000000001 1941.0500000000002 4642.3 1939.2400000000002 4644.120000000001C1937.4400000000003 4645.930000000001 1936.5400000000002 4648.540000000001 1936.5400000000002 4651.960000000001C1936.5400000000002 4655.570000000001 1937.5600000000002 4658.1900000000005 1939.5400000000002 4659.800000000001C1941.5300000000002 4661.410000000001 1943.8400000000001 4662.210000000001 1946.4600000000003 4662.210000000001C1949.6100000000004 4662.210000000001 1952.0700000000002 4661.250000000001 1953.8200000000002 4659.360000000001C1954.9700000000003 4658.150000000001 1955.5800000000002 4656.960000000001 1955.7400000000002 4655.8H1950.5000000000002C1950.2000000000003 4656.39 1949.8500000000001 4656.83 1949.4400000000003 4657.16C1948.7000000000003 4657.76 1947.7600000000002 4658.0599999999995 1946.5900000000004 4658.0599999999995C1945.4800000000005 4658.0599999999995 1944.5400000000004 4657.8099999999995 1943.7600000000004 4657.299999999999C1942.4700000000005 4656.5199999999995 1941.7900000000004 4655.15 1941.7300000000005 4653.169999999999H1956.0000000000005C1956.0100000000004 4651.48 1955.9600000000005 4650.169999999999 1955.8200000000004 4649.279999999999C1955.5800000000004 4647.749999999999 1955.0600000000004 4646.399999999999 1954.2500000000005 4645.219999999998ZM1950.67 4649.78H1941.8300000000002C1942.0300000000002 4648.5 1942.4700000000003 4647.49 1943.2 4646.74C1943.93 4646 1944.95 4645.62 1946.26 4645.62C1947.46 4645.62 1948.49 4645.98 1949.3 4646.69C1950.12 4647.389999999999 1950.58 4648.419999999999 1950.6699999999998 4649.78Z " fill="#000000" fill-opacity="1" transform="matrix(1,0,0,1,-1912,-4635)"></path></svg>