<svg xmlns="http://www.w3.org/2000/svg" version="1.1" xmlns:xlink="http://www.w3.org/1999/xlink" xmlns:svgjs="http://svgjs.com/svgjs" width="18" height="18" viewBox="0 0 18 18"><path id="SvgjsPath1028" d="M1808.03 6212H1799.97C1797.23 6212 1795 6214.23 1795 6216.97V6225.030000000001C1795 6227.77 1797.23 6230.000000000001 1799.97 6230.000000000001H1808.03C1810.77 6230.000000000001 1813 6227.770000000001 1813 6225.030000000001V6216.97C1813 6214.2300000000005 1810.77 6212 1808.03 6212ZM1808.03 6228.4H1799.97C1798.1100000000001 6228.4 1796.6000000000001 6226.889999999999 1796.6000000000001 6225.03V6216.969999999999C1796.6000000000001 6215.11 1798.1100000000001 6213.599999999999 1799.97 6213.599999999999H1808.03C1809.8899999999999 6213.599999999999 1811.3999999999999 6215.11 1811.3999999999999 6216.969999999999V6225.03C1811.3999999999999 6226.889999999999 1809.8899999999999 6228.4 1808.03 6228.4ZM1804 6216.36C1801.44 6216.36 1799.36 6218.44 1799.36 6221C1799.36 6223.56 1801.4399999999998 6225.64 1804 6225.64C1806.56 6225.64 1808.64 6223.56 1808.64 6221C1808.64 6218.44 1806.5600000000002 6216.36 1804 6216.36ZM1804 6224.04C1802.32 6224.04 1800.96 6222.68 1800.96 6221C1800.96 6219.32 1802.32 6217.96 1804 6217.96C1805.68 6217.96 1807.04 6219.32 1807.04 6221C1807.04 6222.68 1805.68 6224.04 1804 6224.04ZM1808.83 6215.01C1808.52 6215.01 1808.22 6215.13 1808.01 6215.35C1807.79 6215.570000000001 1807.66 6215.870000000001 1807.66 6216.18C1807.66 6216.490000000001 1807.7900000000002 6216.79 1808.01 6217.01C1808.22 6217.22 1808.52 6217.35 1808.83 6217.35C1809.1399999999999 6217.35 1809.4399999999998 6217.22 1809.6599999999999 6217.01C1809.8799999999999 6216.79 1809.9999999999998 6216.49 1809.9999999999998 6216.18C1809.9999999999998 6215.87 1809.8799999999999 6215.570000000001 1809.6599999999999 6215.35C1809.4399999999998 6215.13 1809.1399999999999 6215.01 1808.83 6215.01Z " fill-opacity="1" transform="matrix(1,0,0,1,-1795,-6212)"></path></svg>