<svg id="SvgjsSvg1029" xmlns="http://www.w3.org/2000/svg" version="1.1" xmlns:xlink="http://www.w3.org/1999/xlink" xmlns:svgjs="http://svgjs.com/svgjs" width="18" height="18" viewBox="0 0 18 18"><title>icon/dribbble</title><desc>Created with Avocode.</desc><defs id="SvgjsDefs1030"></defs><path id="SvgjsPath1031" d="M1856 6212C1851.04 6212 1847 6216.04 1847 6221C1847 6225.96 1851.04 6230 1856 6230C1860.96 6230 1865 6225.96 1865 6221C1865 6216.04 1860.96 6212 1856 6212ZM1861.86 6216.24C1862.8799999999999 6217.49 1863.5 6219.0599999999995 1863.55 6220.7699999999995C1861.68 6220.379999999999 1859.98 6220.429999999999 1858.49 6220.719999999999C1858.22 6220.089999999999 1857.94 6219.48 1857.65 6218.909999999999C1859.2800000000002 6218.209999999999 1860.7 6217.309999999999 1861.8600000000001 6216.239999999999ZM1860.85 6215.21C1859.6899999999998 6216.27 1858.35 6217.05 1856.98 6217.63C1855.98 6215.79 1855.01 6214.400000000001 1854.43 6213.61C1854.93 6213.5 1855.46 6213.45 1856 6213.45C1857.85 6213.45 1859.54 6214.11 1860.85 6215.21ZM1852.97 6214.08C1853.41 6214.66 1854.46 6216.1 1855.6000000000001 6218.14C1852.7500000000002 6219.070000000001 1849.9800000000002 6219.2300000000005 1848.65 6219.240000000001C1849.21 6216.93 1850.8300000000002 6215.02 1852.97 6214.080000000001ZM1848.45 6220.69C1848.47 6220.69 1848.48 6220.69 1848.5 6220.69C1849.41 6220.69 1851.1 6220.629999999999 1853.08 6220.2699999999995C1854.21 6220.0599999999995 1855.28 6219.78 1856.28 6219.44C1856.55 6219.96 1856.81 6220.509999999999 1857.06 6221.089999999999C1855.6499999999999 6221.539999999999 1854.46 6222.19 1853.52 6222.839999999999C1851.95 6223.929999999999 1850.84 6225.129999999999 1850.24 6225.879999999999C1849.1200000000001 6224.5599999999995 1848.45 6222.859999999999 1848.45 6220.999999999999C1848.45 6220.899999999999 1848.45 6220.789999999999 1848.45 6220.689999999999ZM1851.28 6226.89C1851.8 6226.240000000001 1852.86 6225.05 1854.3799999999999 6224C1855.4199999999998 6223.29 1856.4999999999998 6222.77 1857.61 6222.42C1858.25 6224.08 1858.8 6225.92 1859.12 6227.88C1858.1699999999998 6228.31 1857.11 6228.55 1856 6228.55C1854.21 6228.55 1852.57 6227.93 1851.28 6226.89ZM1860.45 6227.1C1860.1200000000001 6225.3 1859.6100000000001 6223.620000000001 1859.03 6222.08C1860.46 6221.84 1861.94 6221.89 1863.45 6222.23C1863.13 6224.219999999999 1862.02 6225.95 1860.45 6227.099999999999Z " fill="#ffffff" fill-opacity="1" transform="matrix(1,0,0,1,-1847,-6212)"></path></svg>