<svg id="SvgjsSvg1000" xmlns="http://www.w3.org/2000/svg" version="1.1" xmlns:xlink="http://www.w3.org/1999/xlink" xmlns:svgjs="http://svgjs.com/svgjs" width="22" height="39" viewBox="0 0 22 39"><title>icon/facebook</title><desc>Created with Avocode.</desc><defs id="SvgjsDefs1001"></defs><path id="SvgjsPath1007" d="M1533.76 4629.01L1528.59 4629C1522.77 4629 1519.02 4632.73 1519.02 4638.51V4642.900000000001H1513.81C1513.36 4642.900000000001 1513 4643.250000000001 1513 4643.68V4650.04C1513 4650.47 1513.36 4650.83 1513.81 4650.83H1519.02V4666.86C1519.02 4667.29 1519.3799999999999 4667.65 1519.83 4667.65H1526.62C1527.07 4667.65 1527.4299999999998 4667.29 1527.4299999999998 4666.86V4650.83H1533.5099999999998C1533.9599999999998 4650.83 1534.3299999999997 4650.47 1534.3299999999997 4650.04V4643.68C1534.3299999999997 4643.4800000000005 1534.2399999999998 4643.280000000001 1534.0899999999997 4643.13C1533.9399999999996 4642.9800000000005 1533.7299999999998 4642.900000000001 1533.5199999999998 4642.900000000001H1527.4299999999998V4639.18C1527.4299999999998 4637.39 1527.87 4636.490000000001 1530.2699999999998 4636.490000000001L1533.7599999999998 4636.4800000000005C1534.2099999999998 4636.4800000000005 1534.5699999999997 4636.13 1534.5699999999997 4635.700000000001V4629.800000000001C1534.5699999999997 4629.3600000000015 1534.2099999999998 4629.010000000001 1533.7599999999998 4629.010000000001Z " fill="#000000" fill-opacity="1" transform="matrix(1,0,0,1,-1513,-4629)"></path></svg>