<svg xmlns="http://www.w3.org/2000/svg" version="1.1" xmlns:xlink="http://www.w3.org/1999/xlink" xmlns:svgjs="http://svgjs.com/svgjs" width="23" height="14" viewBox="0 0 23 14"><path id="SvgjsPath1034" d="M1918.87 6214.58H1913.35V6215.98H1918.87ZM1908.11 6220.49C1908.56 6220.25 1908.9199999999998 6219.98 1909.1499999999999 6219.69C1909.57 6219.169999999999 1909.78 6218.48 1909.78 6217.629999999999C1909.78 6216.799999999999 1909.57 6216.079999999999 1909.1499999999999 6215.489999999999C1908.4599999999998 6214.519999999999 1907.28 6214.029999999999 1905.61 6213.999999999999H1899V6227.999999999999H1905.16C1905.8600000000001 6227.999999999999 1906.5 6227.939999999999 1907.1000000000001 6227.8099999999995C1907.69 6227.679999999999 1908.21 6227.45 1908.64 6227.11C1909.0300000000002 6226.799999999999 1909.3500000000001 6226.44 1909.6100000000001 6226.009999999999C1910.0200000000002 6225.349999999999 1910.22 6224.599999999999 1910.22 6223.7699999999995C1910.22 6222.969999999999 1910.04 6222.29 1909.69 6221.719999999999C1909.3300000000002 6221.15 1908.81 6220.749999999999 1908.1100000000001 6220.49ZM1902.16 6216.43H1904.7C1905.3600000000001 6216.43 1905.9 6216.51 1906.32 6216.650000000001C1906.81 6216.860000000001 1907.06 6217.290000000001 1907.06 6217.9400000000005C1907.06 6218.530000000001 1906.87 6218.9400000000005 1906.5 6219.17C1906.13 6219.4 1905.65 6219.52 1905.05 6219.52H1902.1599999999999ZM1906.44 6225.32C1906.1000000000001 6225.48 1905.64 6225.5599999999995 1905.05 6225.5599999999995H1902.1599999999999V6221.83H1905.09C1905.6799999999998 6221.84 1906.1399999999999 6221.92 1906.47 6222.07C1907.05 6222.34 1907.34 6222.84 1907.34 6223.57C1907.34 6224.429999999999 1907.03 6225.009999999999 1906.4399999999998 6225.32ZM1920.12 6219.22C1919.6899999999998 6218.55 1919.1299999999999 6218.05 1918.4399999999998 6217.740000000001C1917.7499999999998 6217.43 1916.9799999999998 6217.27 1916.1299999999999 6217.27C1914.6899999999998 6217.27 1913.52 6217.7300000000005 1912.62 6218.660000000001C1911.7199999999998 6219.580000000001 1911.27 6220.920000000001 1911.27 6222.660000000001C1911.27 6224.510000000001 1911.78 6225.85 1912.77 6226.670000000001C1913.76 6227.490000000001 1914.92 6227.900000000001 1916.23 6227.900000000001C1917.8 6227.900000000001 1919.03 6227.410000000001 1919.91 6226.4400000000005C1920.48 6225.830000000001 1920.7900000000002 6225.22 1920.8700000000001 6224.620000000001H1918.2500000000002C1918.1000000000001 6224.930000000001 1917.9300000000003 6225.150000000001 1917.7200000000003 6225.320000000001C1917.3500000000004 6225.630000000001 1916.8800000000003 6225.780000000001 1916.3000000000002 6225.780000000001C1915.7400000000002 6225.780000000001 1915.2700000000002 6225.650000000001 1914.88 6225.39C1914.24 6224.990000000001 1913.89 6224.29 1913.8600000000001 6223.280000000001H1921.0000000000002C1921.0100000000002 6222.420000000001 1920.9800000000002 6221.750000000001 1920.9100000000003 6221.290000000001C1920.7900000000004 6220.510000000001 1920.5300000000002 6219.820000000001 1920.1200000000003 6219.220000000001ZM1918.34 6221.55H1913.9199999999998C1914.0099999999998 6220.900000000001 1914.2399999999998 6220.38 1914.6 6220C1914.9599999999998 6219.62 1915.48 6219.43 1916.1299999999999 6219.43C1916.7299999999998 6219.43 1917.2399999999998 6219.610000000001 1917.6499999999999 6219.97C1918.06 6220.33 1918.29 6220.860000000001 1918.34 6221.55Z " fill-opacity="1" transform="matrix(1,0,0,1,-1899,-6214)"></path></svg>