<svg id="SvgjsSvg1014" xmlns="http://www.w3.org/2000/svg" version="1.1" xmlns:xlink="http://www.w3.org/1999/xlink" xmlns:svgjs="http://svgjs.com/svgjs" width="36" height="36" viewBox="0 0 36 36"><title>icon/dribbble</title><desc>Created with Avocode.</desc><defs id="SvgjsDefs1015"></defs><path id="SvgjsPath1016" d="M1826.99 4631C1817.07 4631 1809 4639.07 1809 4648.98C1809 4658.9 1817.07 4666.969999999999 1826.99 4666.969999999999C1836.9 4666.969999999999 1844.97 4658.9 1844.97 4648.98C1844.97 4639.07 1836.9 4631 1826.99 4631ZM1838.71 4639.48C1840.72 4641.969999999999 1841.97 4645.099999999999 1842.07 4648.5199999999995C1838.33 4647.749999999999 1834.9399999999998 4647.839999999999 1831.95 4648.429999999999C1831.41 4647.159999999999 1830.8500000000001 4645.95 1830.29 4644.8099999999995C1833.54 4643.41 1836.3799999999999 4641.62 1838.71 4639.48ZM1836.68 4637.42C1834.3700000000001 4639.53 1831.69 4641.09 1828.95 4642.25C1826.94 4638.57 1825.01 4635.8 1823.8400000000001 4634.22C1824.8500000000001 4634 1825.91 4633.89 1826.9900000000002 4633.89C1830.6700000000003 4633.89 1834.0500000000002 4635.22 1836.6800000000003 4637.42ZM1820.92 4635.16C1821.8100000000002 4636.3099999999995 1823.92 4639.18 1826.18 4643.2699999999995C1820.49 4645.129999999999 1814.96 4645.44 1812.3 4645.469999999999C1813.4099999999999 4640.849999999999 1816.6499999999999 4637.039999999999 1820.9199999999998 4635.159999999999ZM1811.9 4648.37C1811.93 4648.37 1811.96 4648.37 1811.99 4648.37C1813.82 4648.37 1817.19 4648.24 1821.14 4647.5199999999995C1823.4 4647.11 1825.5400000000002 4646.5599999999995 1827.5500000000002 4645.87C1828.0800000000002 4646.91 1828.6000000000001 4648.01 1829.1000000000001 4649.16C1826.2900000000002 4650.07 1823.91 4651.37 1822.0300000000002 4652.67C1818.88 4654.84 1816.6800000000003 4657.24 1815.4700000000003 4658.7300000000005C1813.2400000000002 4656.1 1811.8900000000003 4652.700000000001 1811.8900000000003 4648.9800000000005C1811.8900000000003 4648.780000000001 1811.9000000000003 4648.570000000001 1811.9000000000003 4648.370000000001ZM1817.55 4660.76C1818.59 4659.45 1820.7 4657.070000000001 1823.76 4654.99C1825.83 4653.57 1827.98 4652.51 1830.19 4651.82C1831.48 4655.15 1832.5700000000002 4658.82 1833.23 4662.73C1831.32 4663.589999999999 1829.21 4664.08 1826.99 4664.08C1823.42 4664.08 1820.14 4662.84 1817.55 4660.76ZM1835.88 4661.17C1835.21 4657.59 1834.21 4654.22 1833.0400000000002 4651.14C1835.9 4650.660000000001 1838.8500000000001 4650.76 1841.88 4651.4400000000005C1841.23 4655.42 1839.0100000000002 4658.88 1835.88 4661.17Z " fill="#000000" fill-opacity="1" transform="matrix(1,0,0,1,-1809,-4631)"></path></svg>