<svg xmlns="http://www.w3.org/2000/svg" version="1.1" xmlns:xlink="http://www.w3.org/1999/xlink" xmlns:svgjs="http://svgjs.com/svgjs" width="36" height="34" viewBox="0 0 36 34"><path id="SvgjsPath1010" d="M1637.93 4651.79V4664.92H1630.23V4652.67C1630.23 4649.6 1629.1100000000001 4647.5 1626.33 4647.5C1624.1999999999998 4647.5 1622.9299999999998 4648.91 1622.37 4650.28C1622.1699999999998 4650.7699999999995 1622.12 4651.45 1622.12 4652.139999999999V4664.919999999999H1614.4199999999998C1614.4199999999998 4664.919999999999 1614.5199999999998 4644.179999999999 1614.4199999999998 4642.029999999999H1622.12V4645.279999999999C1622.1 4645.299999999999 1622.08 4645.329999999999 1622.07 4645.3499999999985H1622.12V4645.279999999999C1623.1399999999999 4643.719999999998 1624.9699999999998 4641.489999999999 1629.06 4641.489999999999C1634.1299999999999 4641.489999999999 1637.9299999999998 4644.769999999999 1637.9299999999998 4651.789999999999ZM1610.66 4634.95C1610.66 4637.15 1608.99 4638.91 1606.3100000000002 4638.91H1606.2600000000002C1603.6700000000003 4638.91 1602.0000000000002 4637.15 1602.0000000000002 4634.95C1602.0000000000002 4632.71 1603.7200000000003 4631 1606.3600000000001 4631C1608.9900000000002 4631 1610.6100000000001 4632.71 1610.66 4634.95ZM1602.46 4664.92H1610.16V4642.03H1602.46Z " fill-opacity="1" transform="matrix(1,0,0,1,-1602,-4631)"></path></svg>