<svg id="SvgjsSvg1009" xmlns="http://www.w3.org/2000/svg" version="1.1" xmlns:xlink="http://www.w3.org/1999/xlink" xmlns:svgjs="http://svgjs.com/svgjs" width="47" height="66" viewBox="0 0 47 66"><title>enterprise</title><desc>Created with Avocode.</desc><defs id="SvgjsDefs1010"></defs><path id="SvgjsPath1011" d="M31.57 38.4V20.4C31.57 20.08 31.45 19.779999999999998 31.22 19.549999999999997L29.14 17.499999999999996V13.199999999999996C29.14 12.539999999999996 28.6 11.999999999999996 27.93 11.999999999999996H21.86V1.1999999999999957C21.86 0.5399999999999957 21.32 -4.218847493575595e-15 20.64 -4.218847493575595e-15C19.97 -4.218847493575595e-15 19.43 0.5399999999999958 19.43 1.1999999999999957V11.999999999999996H13.36C12.69 11.999999999999996 12.139999999999999 12.539999999999996 12.139999999999999 13.199999999999996V17.499999999999996L10.069999999999999 19.549999999999997C9.839999999999998 19.779999999999998 9.709999999999999 20.08 9.709999999999999 20.4V45.599999999999994H1.209999999999999C0.539999999999999 45.599999999999994 -8.881784197001252e-16 46.13999999999999 -8.881784197001252e-16 46.8V64.8C-8.881784197001252e-16 65.46 0.5399999999999991 66 1.209999999999999 66C1.8899999999999992 66 2.429999999999999 65.46 2.429999999999999 64.8V48H10.93C11.6 48 12.14 47.46 12.14 46.8V20.9L14.22 18.849999999999998C14.440000000000001 18.619999999999997 14.57 18.319999999999997 14.57 17.999999999999996V14.399999999999997H26.72V17.999999999999996C26.72 18.319999999999997 26.84 18.619999999999997 27.07 18.849999999999998L29.14 20.9V50.4C29.14 51.059999999999995 29.69 51.6 30.36 51.6C31.03 51.6 31.57 51.06 31.57 50.4V40.8H43.72V64.8C43.72 65.46 44.26 66 44.93 66C45.6 66 46.14 65.46 46.14 64.8V39.599999999999994C46.14 38.94 45.6 38.39999999999999 44.93 38.39999999999999ZM19.43 20.4H21.86V18H19.43ZM4.86 55.2H7.290000000000001V52.800000000000004H4.860000000000001ZM9.71 55.2H12.14V52.800000000000004H9.71ZM4.86 62.4H7.290000000000001V60H4.860000000000001ZM9.71 62.4H12.14V60H9.71ZM34 48H36.43V45.6H34ZM38.86 48H41.29V45.6H38.86ZM34 55.2H36.43V52.800000000000004H34ZM38.86 55.2H41.29V52.800000000000004H38.86ZM34 62.4H36.43V60H34ZM38.86 62.4H41.29V60H38.86ZM14.57 40.8H26.72V38.4H14.569999999999999ZM14.57 33.6H26.72V31.200000000000003H14.569999999999999ZM14.57 26.4H26.72V24H14.569999999999999ZM14.57 48H26.72V45.6H14.569999999999999ZM14.57 55.2H26.72V52.800000000000004H14.569999999999999ZM14.57 62.4H26.72V60H14.569999999999999Z " fill="#486cff" fill-opacity="1" transform="matrix(1,0,0,1,0,0)"></path></svg>