<svg xmlns="http://www.w3.org/2000/svg" style="display: none;"><symbol id="svg-icon__arrow-right" viewBox="0 0 17 16"><path d="M9 .929L16.071 8 9 15.071l-1.325-1.325 4.916-4.916H0V7.32h12.59L7.6 2.33z" fill="#101517"/></symbol><symbol id="svg-icon__enterprise" viewBox="0 0 47 66"><path d="M31.57 38.4v-18c0-.32-.12-.62-.35-.85l-2.08-2.05v-4.3c0-.66-.54-1.2-1.21-1.2h-6.07V1.2c0-.66-.54-1.2-1.22-1.2-.67 0-1.21.54-1.21 1.2V12h-6.07c-.67 0-1.22.54-1.22 1.2v4.3l-2.07 2.05c-.23.23-.36.53-.36.85v25.2h-8.5c-.67 0-1.21.54-1.21 1.2v18c0 .66.54 1.2 1.21 1.2.68 0 1.22-.54 1.22-1.2V48h8.5c.67 0 1.21-.54 1.21-1.2V20.9l2.08-2.05c.22-.23.35-.53.35-.85v-3.6h12.15V18c0 .32.12.62.35.85l2.07 2.05v29.5c0 .66.55 1.2 1.22 1.2.67 0 1.21-.54 1.21-1.2v-9.6h12.15v24c0 .66.54 1.2 1.21 1.2.67 0 1.21-.54 1.21-1.2V39.6c0-.66-.54-1.2-1.21-1.2zm-12.14-18h2.43V18h-2.43zM4.86 55.2h2.43v-2.4H4.86zm4.85 0h2.43v-2.4H9.71zm-4.85 7.2h2.43V60H4.86zm4.85 0h2.43V60H9.71zM34 48h2.43v-2.4H34zm4.86 0h2.43v-2.4h-2.43zM34 55.2h2.43v-2.4H34zm4.86 0h2.43v-2.4h-2.43zM34 62.4h2.43V60H34zm4.86 0h2.43V60h-2.43zM14.57 40.8h12.15v-2.4H14.57zm0-7.2h12.15v-2.4H14.57zm0-7.2h12.15V24H14.57zm0 21.6h12.15v-2.4H14.57zm0 7.2h12.15v-2.4H14.57zm0 7.2h12.15V60H14.57z" fill="#486cff"/></symbol></svg>